<svg id="Layer_1" data-name="Layer 1" xmlns="http://www.w3.org/2000/svg" xmlns:xlink="http://www.w3.org/1999/xlink" viewBox="0 0 219 149"><defs><style>.cls-1,.cls-7{fill:none;}.cls-2{clip-path:url(#clip-path);}.cls-3{clip-path:url(#clip-path-2);}.cls-4{clip-path:url(#clip-path-3);}.cls-5{fill:#4178be;}.cls-6{fill:#5596e6;}.cls-7{stroke:#5596e6;stroke-miterlimit:10;stroke-width:2px;}</style><clipPath id="clip-path"><rect class="cls-1" x="-3.32" y="-576.33" width="416.41" height="150.53"/></clipPath><clipPath id="clip-path-2"><rect class="cls-1" x="528.53" y="-596.4" width="415.63" height="150.71"/></clipPath><clipPath id="clip-path-3"><rect class="cls-1" x="0.19" y="-0.19" width="219" height="149.17"/></clipPath></defs><title>Artboard 6</title><g class="cls-4"><rect class="cls-5" x="-4.81" y="-5.16" width="229" height="159.11"/></g><polygon class="cls-6" points="24.38 54.68 4.67 34.97 24.38 34.97 24.38 54.68"/><rect class="cls-7" x="111.78" y="34.97" width="19.71" height="19.71" rx="1" ry="1"/><polygon class="cls-6" points="158.28 54.68 138.56 54.68 138.56 34.97 158.28 54.68"/><rect class="cls-7" x="31.45" y="34.97" width="19.71" height="19.71" rx="1" ry="1"/><rect class="cls-6" x="58.23" y="34.97" width="19.71" height="19.71"/><path class="cls-7" d="M103.72,54.68H86a1,1,0,0,1-1-1L103.72,35a1,1,0,0,1,1,1V53.68A1,1,0,0,1,103.72,54.68Z"/><rect class="cls-7" x="165.34" y="34.97" width="19.71" height="19.71" rx="1" ry="1"/><rect class="cls-6" x="4.67" y="5.39" width="19.71" height="19.71"/><rect class="cls-7" x="111.78" y="5.39" width="19.71" height="19.71" rx="1" ry="1"/><rect class="cls-6" x="138.56" y="5.39" width="19.71" height="19.71"/><rect class="cls-7" x="31.45" y="5.39" width="19.71" height="19.71" rx="1" ry="1"/><rect class="cls-6" x="58.23" y="5.39" width="19.71" height="19.71"/><path class="cls-7" d="M103.72,25.1,85,6.39a1,1,0,0,1,1-1h17.71a1,1,0,0,1,1,1V24.1A1,1,0,0,1,103.72,25.1Z"/><rect class="cls-7" x="192.12" y="5.39" width="19.71" height="19.71" rx="1" ry="1"/><rect class="cls-7" x="4.67" y="64.55" width="19.71" height="19.71"/><path class="cls-6" d="M112.78,84.26c-.55,0-1-18.71-1-18.71a1,1,0,0,1,1-1H130.5a1,1,0,0,1,1,1Z"/><rect class="cls-6" x="138.56" y="64.55" width="19.71" height="19.71"/><polygon class="cls-6" points="77.94 84.26 58.23 84.26 77.94 64.55 77.94 84.26"/><rect class="cls-7" x="85" y="64.55" width="19.71" height="19.71" rx="1" ry="1"/><path class="cls-7" d="M184.06,84.26,165.34,65.55a1,1,0,0,1,1-1h17.71a1,1,0,0,1,1,1V83.26A1,1,0,0,1,184.06,84.26Z"/><rect class="cls-7" x="192.12" y="64.55" width="19.71" height="19.71" rx="1" ry="1"/><polygon class="cls-6" points="4.84 113.84 4.84 94.13 24.56 94.13 4.84 113.84"/><rect class="cls-7" x="111.96" y="94.13" width="19.71" height="19.71" rx="1" ry="1"/><rect class="cls-6" x="138.74" y="94.13" width="19.71" height="19.71"/><rect class="cls-7" x="31.62" y="94.13" width="19.71" height="19.71" rx="1" ry="1"/><polygon class="cls-6" points="58.4 113.84 58.4 94.13 78.11 94.13 58.4 113.84"/><rect class="cls-7" x="85.18" y="94.13" width="19.71" height="19.71" rx="1" ry="1"/><path class="cls-7" d="M184.23,113.84H166.52a1,1,0,0,1-1-1l18.71-18.71a1,1,0,0,1,1,1v17.71A1,1,0,0,1,184.23,113.84Z"/><rect class="cls-7" x="192.3" y="94.13" width="19.71" height="19.71" rx="1" ry="1"/><path class="cls-7" d="M50.34,143.43,31.62,124.71a1,1,0,0,1,1-1H50.34a1,1,0,0,1,1,1v17.71A1,1,0,0,1,50.34,143.43Z"/><rect class="cls-6" x="58.4" y="123.71" width="19.71" height="19.71"/><rect class="cls-7" x="85.18" y="123.71" width="19.71" height="19.71" rx="1" ry="1"/><rect class="cls-7" x="165.52" y="123.71" width="19.71" height="19.71" rx="1" ry="1"/><path class="cls-7" d="M193.3,143.43a1,1,0,0,1-1-1V124.71a1,1,0,0,1,1-1H211a1,1,0,0,1,1,1Z"/></svg>